<?xml version="1.0" encoding="utf-8"?>
<!-- Generator: Adobe Illustrator 16.0.0, SVG Export Plug-In . SVG Version: 6.00 Build 0)  -->
<!DOCTYPE svg PUBLIC "-//W3C//DTD SVG 1.1 Tiny//EN" "http://www.w3.org/Graphics/SVG/1.1/DTD/svg11-tiny.dtd">
<svg version="1.1" baseProfile="tiny" id="Layer_1" xmlns="http://www.w3.org/2000/svg" xmlns:xlink="http://www.w3.org/1999/xlink"
	 x="0px" y="0px" width="28.35px" height="28.35px" viewBox="0 0 28.35 28.35" xml:space="preserve">
<g>
	<path fill="#F26522" d="M23.561,22.593h-0.267h-2.598c-1.751,1.248-3.89,1.984-6.199,1.984c-3.517,0-6.643-1.704-8.598-4.33
		l-0.248,1.739l-0.087,0.606H5.098c2.346,2.524,5.691,4.105,9.399,4.105c4.223,0,7.976-2.051,10.317-5.209l-1.054,0.928
		L23.561,22.593z"/>
	<path fill="#F26522" d="M14.498,3.153c2.702,0,5.171,1.007,7.057,2.663h2.931c-2.354-2.916-5.956-4.785-9.988-4.785
		c-4.041,0-7.651,1.878-10.005,4.806h2.923C9.305,4.169,11.785,3.153,14.498,3.153z"/>
	<path fill="#F26522" d="M25.017,11.848c0.103,0.536,0.165,1.085,0.184,1.646l1.487,0.859l0.413,0.239l-0.067,0.472l-0.429,3.059
		c0.47-1.333,0.727-2.766,0.727-4.257c0-0.686-0.055-1.36-0.159-2.017h-0.065H25.017z"/>
	<path fill="#F26522" d="M1.664,13.865c0,1.157,0.155,2.279,0.444,3.347L3.537,7.197C2.349,9.142,1.664,11.425,1.664,13.865z"/>
	<polygon fill="#F26522" points="7.549,18.115 9.617,18.115 12.425,12.694 11.144,21.887 13.886,21.887 16.043,6.545 12.454,6.545 
		9.342,12.598 7.976,6.545 6.687,6.545 4.344,6.545 2.61,18.699 2.156,21.887 4.487,21.887 4.952,21.887 5.312,19.368 6.265,12.694 
			"/>
	<polygon fill="#F26522" points="25.018,6.524 22.287,6.524 20.524,6.524 18.191,8.57 17.499,13.498 22.998,16.669 22.742,18.49 
		22.07,19.08 20.119,19.09 19.651,18.533 19.824,17.227 16.727,17.237 16.359,19.851 18.108,21.887 21.587,21.887 23.294,21.887 
		25.653,19.808 26.334,14.965 25.198,14.31 20.845,11.794 21.111,9.898 21.772,9.309 23.733,9.309 24.192,9.855 24.011,11.141 
		24.857,11.141 27.039,11.141 27.106,11.141 27.467,8.581 25.721,6.524 	"/>
</g>
</svg>
